<svg
  width="1024"
  height="1024"
  viewBox="0 0 1024 1024"
  fill="none"
  xmlns="http://www.w3.org/2000/svg"
>
  <defs>
    <linearGradient
      id="bg"
      x1="120"
      y1="80"
      x2="900"
      y2="936"
      gradientUnits="userSpaceOnUse"
    >
      <stop stop-color="#111A27" />
      <stop
        offset="1"
        stop-color="#26474D"
      />
    </linearGradient>
    <linearGradient
      id="panel"
      x1="342"
      y1="212"
      x2="694"
      y2="676"
      gradientUnits="userSpaceOnUse"
    >
      <stop stop-color="#17303B" />
      <stop
        offset="1"
        stop-color="#2B5260"
      />
    </linearGradient>
    <linearGradient
      id="tab"
      x1="600"
      y1="208"
      x2="760"
      y2="362"
      gradientUnits="userSpaceOnUse"
    >
      <stop stop-color="#8BE2D3" />
      <stop
        offset="1"
        stop-color="#5FB7EE"
      />
    </linearGradient>
    <linearGradient
      id="line"
      x1="430"
      y1="392"
      x2="612"
      y2="618"
      gradientUnits="userSpaceOnUse"
    >
      <stop stop-color="#FFB07A" />
      <stop
        offset="1"
        stop-color="#FF7C4A"
      />
    </linearGradient>
  </defs>
  <rect
    x="0"
    y="0"
    width="1024"
    height="1024"
    rx="240"
    fill="url(#bg)"
  />
  <rect
    x="300"
    y="274"
    width="344"
    height="412"
    rx="80"
    transform="rotate(-6 300 274)"
    fill="#7AD8CB"
    opacity="0.12"
  />
  <rect
    x="332"
    y="196"
    width="360"
    height="468"
    rx="82"
    fill="url(#panel)"
  />
  <path
    d="M610 196H618C659.421 196 693 229.579 693 271V279L610 196Z"
    fill="url(#tab)"
  />
  <rect
    x="400"
    y="298"
    width="144"
    height="28"
    rx="14"
    fill="#D7F4EE"
    opacity="0.72"
  />
  <rect
    x="400"
    y="348"
    width="214"
    height="22"
    rx="11"
    fill="#B9E6DE"
    opacity="0.44"
  />
  <path
    d="M430 432H578V514H486V602"
    stroke="url(#line)"
    stroke-width="62"
    stroke-linecap="round"
    stroke-linejoin="round"
  />
  <circle
    cx="430"
    cy="432"
    r="38"
    fill="#FF8758"
    stroke="#17303B"
    stroke-width="16"
  />
  <circle
    cx="578"
    cy="432"
    r="38"
    fill="#FF8758"
    stroke="#17303B"
    stroke-width="16"
  />
  <circle
    cx="578"
    cy="514"
    r="38"
    fill="#FF8758"
    stroke="#17303B"
    stroke-width="16"
  />
  <circle
    cx="486"
    cy="602"
    r="38"
    fill="#FF8758"
    stroke="#17303B"
    stroke-width="16"
  />
  <rect
    x="332"
    y="196"
    width="360"
    height="468"
    rx="82"
    stroke="rgba(255,255,255,0.12)"
    stroke-width="8"
  />
</svg>
